<svg width="383" height="153" viewBox="0 0 383 153" fill="none" xmlns="http://www.w3.org/2000/svg">
<path fill-rule="evenodd" clip-rule="evenodd" d="M156.073 3.02891C220.489 -7.15764 295.441 6.5605 368.99 71.7164C369.062 71.7012 369.134 71.6867 369.205 71.6715L369.267 71.9625C372.111 74.4877 374.955 77.0884 377.795 79.7691L382.07 83.8053L377.399 87.3775C344.995 112.157 287.672 141.745 220.512 150.385C153.191 159.046 75.9131 146.647 4.24414 87.2555L0 83.7379L3.91309 79.8561C34.3201 49.6876 89.3644 13.5782 156.073 3.02891ZM366.063 82.5318C328.049 90.2013 285.966 94.3195 244.062 96.0279C235.821 106.608 215.983 117.779 191.951 117.779C167.746 117.779 147.086 106.446 138.617 95.7984C88.355 93.7057 44.6827 89.1819 17.1133 84.7848C84.4635 137.63 156.242 148.57 219.236 140.466C281.219 132.493 334.628 106.072 366.555 82.9781C366.391 82.8288 366.227 82.6807 366.063 82.5318ZM356.573 74.1891C287.19 15.3716 217.469 3.44399 157.636 12.9059C101.598 21.7676 53.9547 49.4501 23.3008 75.6227C52.0297 79.9408 95.9985 84.2462 145.945 86.0768C156.413 85.8343 173.108 85.5348 191.951 85.5348C213.037 85.5348 230.895 85.9103 240.523 86.1617C280.227 84.6577 320.151 80.996 356.573 74.1891Z" fill="#2E2D2B"/>
</svg>
