<svg width="383" height="153" viewBox="0 0 383 153" fill="none" xmlns="http://www.w3.org/2000/svg">
<path fill-rule="evenodd" clip-rule="evenodd" d="M156.073 3.02902C223.061 -7.56436 301.445 7.6933 377.795 79.7693L382.07 83.8054L377.399 87.3777C344.995 112.158 287.672 141.746 220.512 150.385C153.191 159.046 75.9131 146.647 4.24414 87.2556L0 83.738L3.91309 79.8562C34.3201 49.6877 89.3643 13.5783 156.073 3.02902ZM245.849 51.1814C248.196 54.4386 249.48 58.7525 249.48 64.4616C249.48 90.0346 223.724 110.765 191.951 110.765C160.179 110.765 134.421 90.0347 134.421 64.4616C134.421 59.2222 135.503 55.1575 137.495 52.0066C85.6502 57.9915 41.3442 70.768 15.5801 82.5105C15.3744 82.7025 15.1686 82.8931 14.9648 83.0847C82.9348 137.395 155.572 148.657 219.236 140.467C279.145 132.759 331.044 107.818 363.277 85.3054C326.769 66.1015 286.313 55.6351 245.849 51.1814ZM347.411 66.6931C281.072 14.363 214.836 3.86051 157.636 12.906C110.959 20.2874 70.1065 40.7274 40.0449 62.4753C73.2238 51.6631 118.687 42.0797 168.365 39.3337C226.184 36.1377 290.181 42.1763 347.411 66.6931Z" fill="#2E2D2B"/>
</svg>
